# xmcd CD database file
#
# Track frame offsets:
#	150
#	19122
#	32553
#	49440
#	64995
#
# Disc length: 1044 seconds
#
# Revision: 0
# Processed by: cddbd v1.4PL0 Copyright (c) Steve Scherf et al.
# Submitted via: CDex 1.40Beta9
#
DISCID=40041205
DTITLE=Patrick McMahon - Ain't That Alright!
DYEAR=1999
DGENRE=Country
TTITLE0=ain't that alright
TTITLE1=chill me to the bone
TTITLE2=my hat
TTITLE3=lac la hache
TTITLE4=chill me to the bone (sans drums mix)
EXTD=YEAR: 1999 ID3G: 2
EXTT0=
EXTT1=
EXTT2=
EXTT3=
EXTT4=
PLAYORDER=
